<?xml version="1.0" encoding="utf-8"?>
<!-- Generator: Adobe Illustrator 28.1.0, SVG Export Plug-In . SVG Version: 6.00 Build 0)  -->
<!DOCTYPE svg PUBLIC "-//W3C//DTD SVG 1.1//EN" "http://www.w3.org/Graphics/SVG/1.1/DTD/svg11.dtd" [
	<!ENTITY ns_extend "http://ns.adobe.com/Extensibility/1.0/">
	<!ENTITY ns_ai "http://ns.adobe.com/AdobeIllustrator/10.0/">
	<!ENTITY ns_graphs "http://ns.adobe.com/Graphs/1.0/">
	<!ENTITY ns_vars "http://ns.adobe.com/Variables/1.0/">
	<!ENTITY ns_imrep "http://ns.adobe.com/ImageReplacement/1.0/">
	<!ENTITY ns_sfw "http://ns.adobe.com/SaveForWeb/1.0/">
	<!ENTITY ns_custom "http://ns.adobe.com/GenericCustomNamespace/1.0/">
	<!ENTITY ns_adobe_xpath "http://ns.adobe.com/XPath/1.0/">
]>
<svg version="1.1" id="Ebene_1" xmlns:x="&ns_extend;" xmlns:i="&ns_ai;" xmlns:graph="&ns_graphs;"
	 xmlns="http://www.w3.org/2000/svg" xmlns:xlink="http://www.w3.org/1999/xlink" x="0px" y="0px" viewBox="0 0 1585 318.2"
	 style="enable-background:new 0 0 1585 318.2;" xml:space="preserve">
<style type="text/css">
	.st0{fill:#EE7F00;}
</style>
<metadata>
	<sfw  xmlns="&ns_sfw;">
		<slices></slices>
		<sliceSourceBounds  bottomLeftOrigin="true" height="318.2" width="1585" x="-981" y="0.8"></sliceSourceBounds>
	</sfw>
</metadata>
<g>
	<path class="st0" d="M196.8,229.9c0.5-27.5-11.9-48.7-30.7-61c-18.3-12-40.1-16-64.2-21.6c-29.7-6.9-71.7-19.8-71.7-55.4
		c0-28,22.5-51.6,51.9-51.6h89.1v-28H83.3C37.1,13.4,0,44.7,0,91.5c0,21.2,8.6,41.2,25.3,55.3c15.1,12.8,38.9,19.7,57.6,24.5
		c17.2,4.4,48,8.1,64.8,19.9c13.2,9.2,18.2,23.6,18.2,39.7c0,33.8-27.9,58.1-61.9,58.4H6.9v28.4c0,0,96.7,0.1,97.4,0.1
		C153.3,317.8,196,278.8,196.8,229.9 M497,317.7L360.5,0L224,317.7h32.7L360.9,74.1l103.4,243.6H497z M806.7,38.5h85.6V11.1H482.1
		v27.4h86.4v279h30.2v-279h177.7v279h30.2V38.5z M942.8,318h138.1v-27.3H973v-280h-30.2C942.8,10.7,942.8,318,942.8,318z
		 M1144.6,317.8h165v-27.3h-134.7V180.9h117.7v-27.3h-117.7V38.2h134.7V10.8h-165V317.8z M1585,109.2c0-35.1-16.4-66.1-46.9-83.7
		c-25.3-14.3-57.2-14.7-85.7-14.7h-71.9v307.4h30.2v-280h47.8c23.7,0,48.2,0,68.2,14.3c17.1,11.8,28.2,33.1,28.2,53.9
		c0,26.9-14.3,49.8-39.2,61.2c-20,9-44.5,8.2-65.8,8.2h-9l105.8,142h37.6L1496,199.9C1545,198.6,1585,158.6,1585,109.2"/>
</g>
</svg>
